<svg width="129" height="71" viewBox="0 0 129 71" fill="none" xmlns="http://www.w3.org/2000/svg">
<path d="M95.1972 33.3995C95.2923 33.3452 95.3875 33.2893 95.4826 33.2349L95.5113 33.2561L95.5143 33.2123C95.5521 33.2229 95.5777 33.2108 95.5913 33.173C95.6457 33.1413 95.7016 33.1081 95.7559 33.0764L95.7544 33.0779C95.8178 33.0401 95.8828 33.0024 95.9462 32.9646V32.9707C96.6258 32.6717 97.2691 32.3123 97.864 31.8653C99.7321 30.7946 101.602 29.7254 103.47 28.6547C104.163 28.2576 104.865 27.8725 105.546 27.4527C106.25 27.0178 106.263 26.6538 105.575 26.2416C104.631 25.6768 103.661 25.1558 102.702 24.6152C102.488 24.3992 102.236 24.2497 101.938 24.1787C101.84 24.1198 101.742 24.0624 101.644 24.0035C100.825 23.4373 99.9677 22.9389 99.0676 22.5146L99.0601 22.51C99.0027 22.3862 98.897 22.3515 98.7716 22.3545C98.7173 22.2337 98.6085 22.202 98.4908 22.1899C98.0815 21.8244 97.5892 21.6009 97.1014 21.3684C97.0501 21.3457 96.9988 21.3216 96.9474 21.2989C96.8523 21.243 96.7586 21.1872 96.6635 21.1313L96.668 21.1358C96.6484 21.0497 96.6046 20.9954 96.5065 21.006C96.4747 20.9742 96.4385 20.9622 96.3947 20.9712C96.2875 20.9078 96.1818 20.8444 96.0761 20.7794C95.996 20.7356 95.9175 20.6903 95.8375 20.6465C95.4977 20.3415 95.099 20.1361 94.6807 19.967L94.643 19.9474L94.6203 19.896L94.5705 19.9096C94.4678 19.8628 94.3666 19.8145 94.2639 19.7677C94.1612 19.5849 93.9951 19.5004 93.7958 19.4671C93.5723 19.2678 93.3201 19.1168 93.0317 19.0277C92.8248 18.8057 92.5696 18.6653 92.2781 18.5867C92.2585 18.5505 92.2283 18.5369 92.1875 18.546C92.1105 18.3904 91.9731 18.3315 91.813 18.3089L91.7828 18.2892C91.1606 17.9011 90.5626 17.4677 89.868 17.208C89.8045 17.1642 89.7411 17.1204 89.6777 17.0766C89.6248 16.9588 89.5176 16.9407 89.4074 16.9286L89.3968 16.9211C89.2397 16.7489 89.0434 16.6462 88.8199 16.5934L88.8244 16.5964C88.6991 16.4469 88.5511 16.3382 88.3473 16.3261L88.3261 16.3185C88.2868 16.2868 88.2476 16.2566 88.2083 16.2249C87.7674 15.9591 87.334 15.6813 86.8855 15.4291C86.2648 15.0817 85.854 15.3098 85.8465 16.0241C85.8314 17.6595 85.8223 19.295 85.851 20.9304C85.8601 21.453 85.7106 21.6055 85.179 21.6055C77.7054 21.5889 70.2333 21.5889 62.7597 21.607C62.2221 21.6085 62.0862 21.4469 62.0877 20.9274C62.1028 14.2089 62.1028 7.49034 62.0862 0.773311C62.0847 0.185873 62.2448 0.012207 62.8564 0.012207C74.4058 0.0318386 85.9552 0.01976 97.5047 0.0288208C100.611 0.031841 103.643 0.513567 106.573 1.5782C106.689 1.62049 106.816 1.63257 106.938 1.65824C107.153 1.8455 107.408 1.93309 107.687 1.95876L107.692 1.96027C108.011 2.18527 108.356 2.34535 108.741 2.41935H108.74C108.805 2.54469 108.917 2.56885 109.043 2.55979C109.057 2.59754 109.083 2.61113 109.122 2.60056C109.216 2.73194 109.335 2.81802 109.503 2.81953C109.649 2.88748 109.797 2.95544 109.944 3.02339C110.007 3.14874 110.119 3.18045 110.247 3.18045L110.243 3.17743C110.295 3.21216 110.348 3.24689 110.401 3.28162C110.431 3.3224 110.472 3.34052 110.523 3.33599C110.65 3.49002 110.798 3.60781 111.005 3.62896C111.016 3.66369 111.038 3.67577 111.072 3.66369C111.162 3.81168 111.294 3.89323 111.469 3.90078L111.487 3.91588C111.526 3.95061 111.567 3.98383 111.606 4.01857C111.658 4.0382 111.71 4.05783 111.762 4.07746C112.052 4.41573 112.428 4.63017 112.823 4.81893C112.887 4.86877 112.95 4.9186 113.014 4.96844C113.063 5.07867 113.151 5.13606 113.27 5.14361C115.199 6.66884 116.944 8.37829 118.453 10.3233C118.82 10.8745 119.146 11.4559 119.607 11.9407C119.626 11.989 119.646 12.0358 119.664 12.0841C119.699 12.1279 119.735 12.1702 119.77 12.214L119.779 12.2261C119.978 12.7939 120.336 13.2726 120.655 13.7725C120.626 13.9582 120.751 14.07 120.854 14.1938C120.921 14.4867 121.058 14.7435 121.263 14.9624L121.262 14.9594C121.315 15.2977 121.461 15.5952 121.641 15.8806C121.682 15.9742 121.721 16.0694 121.762 16.163C121.792 16.2325 121.821 16.3019 121.851 16.3714C121.883 16.4544 121.914 16.5375 121.946 16.6206C121.972 16.6719 121.999 16.7217 122.025 16.7731C122.015 16.8244 122.026 16.8712 122.055 16.9135C122.062 17.1959 122.16 17.4466 122.322 17.6746C122.352 17.7788 122.382 17.883 122.413 17.9857C122.379 18.0899 122.42 18.1669 122.502 18.2288L122.514 18.2681C122.497 18.3919 122.517 18.5022 122.632 18.5762L122.633 18.5792C122.632 18.7921 122.623 19.0065 122.786 19.1787C122.798 19.2316 122.81 19.2829 122.822 19.3358C122.848 19.4113 122.873 19.4883 122.899 19.5638C123.21 21.4363 123.565 23.2983 123.607 25.2116C123.684 28.768 123.036 32.1839 121.797 35.5016C121.466 36.2491 121.135 36.9967 120.804 37.7442L120.809 37.7381C120.77 37.797 120.732 37.8544 120.693 37.9133C120.531 38.2078 120.371 38.5007 120.209 38.7952C120.175 38.8511 120.141 38.907 120.107 38.9628C120.067 38.9915 120.048 39.0308 120.049 39.0791C119.847 39.2543 119.69 39.4597 119.634 39.7285L119.626 39.7451C119.536 39.8236 119.411 39.878 119.427 40.032C119.382 40.1151 119.337 40.1981 119.291 40.2797C119.086 40.4548 118.911 40.6496 118.846 40.923C118.802 40.9804 118.757 41.0362 118.713 41.0936C118.674 41.1435 118.633 41.1918 118.594 41.2416L118.571 41.2718C118.539 41.3081 118.506 41.3428 118.474 41.379C117.04 43.2365 115.386 44.878 113.575 46.364C113.385 46.4017 113.237 46.4953 113.157 46.6796C112.811 46.8427 112.814 47.048 113.083 47.2851C113.137 47.5117 113.251 47.7019 113.438 47.8454L113.453 47.865C113.494 47.9194 113.533 47.9722 113.574 48.0266C113.598 48.0779 113.622 48.1293 113.646 48.1791C113.677 48.2108 113.708 48.2425 113.738 48.2758L113.766 48.3105C113.793 48.4993 113.856 48.6654 114.034 48.7651L114.042 48.7741C114.084 48.833 114.127 48.8919 114.17 48.9508C114.395 49.2966 114.62 49.6439 114.845 49.9898C114.879 50.029 114.912 50.0683 114.945 50.1076L114.957 50.1302C114.998 50.1891 115.037 50.2495 115.078 50.3084C115.075 50.3613 115.095 50.402 115.137 50.4307C115.277 50.7176 115.41 51.0091 115.677 51.2084L115.673 51.2024C115.717 51.2779 115.762 51.3534 115.806 51.4289C115.795 51.4682 115.809 51.4908 115.848 51.4969C115.893 51.5543 115.937 51.6116 115.983 51.669C116.004 51.7128 116.025 51.7566 116.047 51.8004C116.082 51.8442 116.115 51.888 116.15 51.9318L116.159 51.9439C116.201 52.0043 116.242 52.0647 116.285 52.1251C116.28 52.1794 116.3 52.2217 116.342 52.2549C116.316 52.3456 116.372 52.3788 116.446 52.3999C116.472 52.4482 116.497 52.4981 116.525 52.5464C116.54 52.6929 116.633 52.7805 116.753 52.8484L116.756 52.853C116.754 52.9677 116.798 53.0553 116.908 53.1006C116.908 53.1444 116.929 53.1731 116.972 53.1867C117.043 53.2894 117.115 53.3921 117.186 53.4948C117.182 53.5476 117.203 53.5869 117.25 53.6126C117.286 53.6579 117.322 53.7032 117.36 53.7485L117.364 53.7575C117.405 53.8225 117.446 53.8889 117.487 53.9538C117.58 54.0973 117.674 54.2393 117.767 54.3827C117.816 54.5821 117.9 54.7542 118.092 54.8539C118.14 54.9384 118.189 55.023 118.236 55.1076C118.214 55.2314 118.299 55.2767 118.391 55.316C118.384 55.3613 118.4 55.3945 118.438 55.4187C118.397 55.7464 118.696 55.846 118.856 56.0393C118.882 56.0876 118.906 56.1345 118.932 56.1828C118.962 56.222 118.992 56.2628 119.021 56.3021C119.041 56.3595 119.06 56.4169 119.078 56.4727C118.992 56.7144 119.178 56.7159 119.324 56.7521C119.364 56.8216 119.404 56.891 119.444 56.9605L119.424 57.0013L119.468 57.0239C119.525 57.0934 119.581 57.1629 119.639 57.2323C119.672 57.4181 119.691 57.6129 119.93 57.6597C119.974 57.7216 120.016 57.7835 120.058 57.8454C120.181 58.3287 120.377 58.7651 120.835 59.0294L120.841 59.0399C120.896 59.3072 121.047 59.5096 121.263 59.6697C121.263 59.6697 121.257 59.6621 121.259 59.6621C121.298 59.7255 121.339 59.789 121.378 59.8509C121.378 59.8509 121.374 59.8569 121.375 59.8569C121.534 60.2299 121.73 60.5788 122.037 60.8551L122.038 60.8566C122.064 61.0575 122.17 61.2039 122.336 61.3127C122.438 61.4622 122.539 61.6132 122.642 61.7627C122.686 61.8216 122.728 61.8805 122.772 61.9394L122.766 61.9333C122.905 62.3516 123.157 62.696 123.464 63.004C123.589 63.1958 123.716 63.3861 123.841 63.5779C123.841 63.7032 123.897 63.7938 124.01 63.8482C124.051 63.9101 124.092 63.9735 124.133 64.0354C124.169 64.2333 124.27 64.3873 124.447 64.4885L124.445 64.487C124.478 64.712 124.59 64.8902 124.774 65.0231C124.826 65.091 124.877 65.1605 124.93 65.2284C125.108 65.6301 125.292 66.0258 125.649 66.3082L125.646 66.3036C125.706 66.5694 125.836 66.7884 126.066 66.9439L126.084 66.8941L126.063 66.9424C126.103 67.1765 126.23 67.3577 126.417 67.4981C126.445 67.5465 126.472 67.5933 126.499 67.6416C126.559 67.847 126.668 68.0176 126.858 68.1264C127.337 68.889 127.799 69.6637 128.301 70.4127C128.603 70.8657 128.462 70.9458 127.986 70.9458C119.584 70.9367 111.18 70.9337 102.778 70.9503C102.299 70.9518 102.05 70.7494 101.818 70.3946C100.733 68.7425 99.6415 67.0964 98.5481 65.4504C98.3277 65.1197 98.0845 64.8056 97.8505 64.4839C97.8746 64.2604 97.7327 64.1336 97.5771 64.0143C97.5409 63.969 97.5046 63.9222 97.4684 63.8769C97.4427 63.75 97.4035 63.6337 97.2751 63.5733L97.2766 63.5748C97.1271 63.2366 96.9791 62.8983 96.6726 62.6657C96.6499 62.6159 96.6273 62.5661 96.6061 62.5178C96.5729 62.48 96.5412 62.4407 96.508 62.403L96.4898 62.3788C96.4521 62.3199 96.4128 62.261 96.3751 62.2021C96.3388 62.1493 96.3026 62.0979 96.2663 62.0451C96.2512 61.9213 96.212 61.8125 96.0836 61.7612C95.987 61.6102 95.8888 61.4576 95.7922 61.3066C95.7438 61.1118 95.6502 60.9502 95.4705 60.8476L95.4735 60.8506C95.4373 60.6241 95.3135 60.4519 95.1428 60.3069C95.0945 60.2405 95.0477 60.174 94.9993 60.1076C94.9601 59.9188 94.8755 59.7603 94.7003 59.6636L94.6928 59.6546C94.6762 59.5473 94.6686 59.4356 94.5403 59.3933C94.4527 59.2695 94.3636 59.1441 94.276 59.0203L94.2926 58.975L94.2428 58.9554C94.1914 58.8859 94.1401 58.8179 94.0887 58.7485C94.0812 58.5401 93.9498 58.4117 93.7958 58.297L93.7943 58.2939C93.7565 58.1037 93.6599 57.9511 93.4968 57.8424C93.4726 57.7941 93.4485 57.7458 93.4228 57.6959C93.3548 57.4936 93.2536 57.3169 93.0558 57.2127C93.0528 57.1629 93.0362 57.1191 93.0045 57.0813C92.9667 57.033 92.929 56.9847 92.8927 56.9363L92.8897 56.9318C92.8867 56.814 92.8399 56.7234 92.7296 56.6706C92.6843 56.6056 92.6405 56.5407 92.5952 56.4757C92.3899 56.0499 92.1558 55.6406 91.8251 55.2963L91.8145 55.2782C91.7526 54.9958 91.5744 54.7889 91.372 54.5971C91.2557 54.4174 91.138 54.2377 91.0217 54.0565C90.9885 54.0142 90.9552 53.972 90.9235 53.9297L90.9145 53.9161C90.8873 53.753 90.8163 53.6246 90.6472 53.5718C90.4312 52.9421 89.9314 52.486 89.6339 51.9061C89.4844 51.6147 89.2231 51.6675 88.977 51.666C88.1464 51.6645 87.3143 51.7007 86.4868 51.6539C85.925 51.6222 85.8389 51.8442 85.8389 52.3486C85.8556 58.161 85.8495 63.975 85.848 69.789C85.848 70.9337 85.848 70.9337 84.6686 70.9337C77.5967 70.9382 70.5263 70.9503 63.4544 70.9412C62.0167 70.9397 62.1088 71.213 62.1088 69.6319C62.1088 57.2504 62.1149 44.8689 62.1179 32.4874C62.1179 32.3878 62.1043 32.2866 62.0983 32.1869C62.3172 31.9997 62.6087 32.125 62.8458 32.0148C67.4743 32.0223 72.1013 32.0329 76.7299 32.0389C79.7486 32.0419 82.7673 32.0404 85.7861 32.0404C85.8027 32.3651 85.8344 32.6883 85.8344 33.0129C85.8389 34.514 85.8314 36.0166 85.8374 37.5177C85.842 38.4283 86.2014 38.6336 87.0123 38.1957C87.1392 38.1277 87.2434 38.0175 87.3581 37.9269C87.4004 37.9344 87.4321 37.9209 87.4548 37.8831C87.7432 37.8046 87.9969 37.6641 88.2053 37.4452L88.2098 37.4421C88.2989 37.3893 88.388 37.3379 88.4771 37.2851C88.6417 37.19 88.8048 37.0948 88.9694 36.9997C89.1718 36.9725 89.3334 36.8834 89.4391 36.7037C89.4874 36.7007 89.5312 36.6856 89.572 36.6584C89.7743 36.6539 89.9132 36.5436 90.022 36.3835C90.1775 36.302 90.3346 36.222 90.4901 36.1404C90.5641 36.1857 90.5853 36.1389 90.5958 36.0785L90.6155 36.0604C90.771 36.0211 90.9145 35.9652 91.0036 35.8203C91.0398 35.8324 91.0655 35.8203 91.0791 35.784C91.9655 35.3295 92.8459 34.8629 93.6584 34.2815C93.7792 34.2694 93.8909 34.2437 93.9468 34.1184C94.0706 34.1214 94.1778 34.0912 94.2337 33.9643L94.2428 33.9583C94.6052 33.8586 94.9178 33.6578 95.1972 33.3995Z" fill="black"/>
<path d="M0.00769043 70.8369C0.00920055 58.5355 0.0122198 46.2325 0.0137299 33.931C0.0137299 33.629 0.0333615 33.3255 0.0137299 33.0249C-0.0361042 32.3001 0.330856 32.0298 1.01192 32.0328C2.77273 32.0418 4.53353 32.0343 6.29434 32.0358C23.2757 32.0373 40.257 32.0403 57.2384 32.0418C57.338 32.0418 57.4392 32.0283 57.5389 32.0222C57.8092 32.1642 57.6597 32.4164 57.6959 32.6202V32.6217C57.5585 32.7425 57.5434 32.9056 57.5449 33.0733V33.0748C57.3848 33.5792 57.2263 34.082 57.0662 34.5864C57.0435 34.6332 57.0209 34.68 56.9982 34.7253C56.9137 34.973 56.8291 35.2207 56.7445 35.4698C56.2553 36.4816 55.766 37.4934 55.2782 38.5052C55.1302 38.7604 54.9837 39.0156 54.8358 39.2708L54.8342 39.2753C54.6696 39.3811 54.579 39.5306 54.5564 39.7238C54.5156 39.7405 54.4975 39.7692 54.499 39.813C54.1154 40.3068 53.7137 40.7885 53.4389 41.3563L53.4464 41.3503C53.3981 41.4076 53.3513 41.465 53.303 41.5239L53.309 41.5179C53.2622 41.5738 53.2169 41.6296 53.1701 41.6855L53.1686 41.6885C53.1323 41.7368 53.0961 41.7852 53.0614 41.8335C52.9904 41.9226 52.9194 42.0102 52.8499 42.0993C52.8001 42.1612 52.7518 42.2216 52.7019 42.2835C51.5663 43.5596 50.3718 44.7767 49.0867 45.9018C49.0263 45.9516 48.9659 45.9999 48.9055 46.0498C48.8149 46.1207 48.7258 46.1902 48.6352 46.2597C48.5869 46.2959 48.5385 46.3306 48.4902 46.3669L48.4872 46.3684C48.4313 46.4152 48.3754 46.4605 48.3211 46.5073L48.3271 46.5013C48.241 46.5617 48.155 46.6236 48.0689 46.684L48.0432 46.7036C47.9934 46.7444 47.9451 46.7837 47.8952 46.8245C47.8363 46.8667 47.7789 46.9075 47.72 46.9498C47.4422 47.057 47.1824 47.1884 46.9997 47.4361L46.9816 47.4466C46.9257 47.4874 46.8714 47.5297 46.8155 47.5705L46.82 47.5674C46.6947 47.5705 46.598 47.6203 46.5437 47.7366L46.5316 47.7441C46.2462 47.8211 46.0061 47.9691 45.8143 48.1957C45.6527 48.2802 45.4911 48.3663 45.3295 48.4509C45.0879 48.4962 44.8855 48.617 44.7058 48.7786C43.7499 49.2059 42.794 49.6333 41.8381 50.0606C41.7898 50.0878 41.743 50.115 41.6947 50.1422C41.6448 50.1573 41.595 50.1724 41.5452 50.189C41.3352 50.1905 41.1435 50.2373 40.997 50.4019C40.926 50.4186 40.8565 50.4367 40.7856 50.4533C40.2706 50.5469 39.7662 50.6813 39.289 50.9033C39.2332 50.9154 39.1773 50.9275 39.1214 50.9411C38.7529 50.9697 38.392 51.0241 38.0583 51.1963L37.9858 51.1902L37.9178 51.2144C37.6475 51.1691 37.4014 51.2446 37.1658 51.3654C37.0646 51.3745 36.9649 51.382 36.8638 51.3911C36.6342 51.3624 36.4092 51.3594 36.2159 51.5179C36.1314 51.5225 36.0453 51.5255 35.9607 51.53C35.6496 51.5255 35.3295 51.4469 35.0471 51.6493C34.6937 51.6599 34.3419 51.672 33.9885 51.6825C33.5385 51.6901 33.0885 51.6976 32.6384 51.7037C30.2177 51.7037 27.797 51.7037 25.3763 51.7052C25.1286 51.7052 24.8824 51.7052 24.6348 51.7067C24.5306 51.7067 24.4264 51.7067 24.3222 51.7067C23.6804 51.5557 23.777 51.9951 23.777 52.3772C23.7785 58.2878 23.768 64.1984 23.7921 70.1106C23.7952 70.775 23.6139 70.9547 22.9495 70.9532C15.8821 70.9336 8.81322 70.9457 1.74584 70.9517C1.471 70.9517 1.19616 70.9789 0.921316 70.994C0.818627 70.9955 0.715938 70.997 0.61174 71C0.410893 70.9426 0.210047 70.8898 0.00769043 70.8369Z" fill="black"/>
<path d="M23.6833 18.0444V57.5166L0 42.8555V18.0444H23.6833Z" fill="black"/>
<path d="M40.9395 1.48446C40.9893 1.49201 41.0391 1.49806 41.089 1.50561C41.3049 1.69739 41.5692 1.75931 41.8455 1.78951C41.8954 1.79706 41.9452 1.80461 41.9935 1.81216C42.0479 1.9677 42.1672 1.9677 42.2986 1.94203C42.3937 1.9526 42.4904 1.96166 42.5855 1.97223C42.6504 2.12325 42.7788 2.10512 42.9056 2.09455L42.9343 2.10513L42.9691 2.15798L43.028 2.14741C43.1291 2.1912 43.2288 2.23651 43.33 2.2803C43.5444 2.46605 43.7906 2.58534 44.073 2.62763L44.1017 2.60045L44.0684 2.62159C44.2361 2.82847 44.4913 2.87378 44.7193 2.97042C44.8628 3.0414 45.0077 3.11238 45.1512 3.18335C45.3671 3.40232 45.6269 3.54427 45.9198 3.62884H45.9214C46.024 3.80552 46.2007 3.86442 46.3819 3.91425L46.3925 3.92331C46.3986 4.00486 46.4393 4.04412 46.5239 4.02902C46.5737 4.04714 46.6236 4.06527 46.6749 4.08188C46.7263 4.12416 46.7761 4.16493 46.8274 4.20722C46.838 4.24799 46.8637 4.26611 46.9044 4.26309C46.9799 4.30386 47.0539 4.34464 47.1279 4.3839C47.2095 4.44129 47.2925 4.50018 47.3741 4.55757C47.4405 4.6074 47.507 4.65573 47.5734 4.70556C47.6308 4.74784 47.6897 4.78861 47.7471 4.8309C47.8347 4.90187 47.9238 4.97285 48.0114 5.04383C49.97 6.51016 51.6779 8.23472 53.2243 10.1239C53.2575 10.1616 53.2923 10.1994 53.3255 10.2371C53.3708 10.3006 53.4161 10.364 53.4614 10.4274C53.5807 10.7294 53.7725 10.9816 54.002 11.2066C54.0337 11.2459 54.0655 11.2867 54.0972 11.3259C54.1183 11.4694 54.1651 11.5963 54.3192 11.6491C54.3448 11.6929 54.3705 11.7367 54.3947 11.7805C54.4158 11.9768 54.5155 12.1203 54.6816 12.2214C54.7118 12.2803 54.7405 12.3392 54.7707 12.3966C54.7933 12.4329 54.8145 12.4691 54.8371 12.5069L54.8552 12.5295C54.9036 12.6095 54.9504 12.6896 54.9987 12.7711C55.0727 12.898 55.1482 13.0248 55.2222 13.1517C55.2449 13.1879 55.2675 13.2257 55.2917 13.2619L55.3038 13.2831C55.3385 13.4733 55.3898 13.6546 55.5786 13.7572C55.5952 13.8056 55.6118 13.8524 55.6284 13.9007C55.6466 14.088 55.7326 14.239 55.8821 14.3522C56.0256 14.6618 56.1691 14.9729 56.314 15.2825L56.3004 15.3383L56.3488 15.3761C57.0902 17.2184 57.7169 19.0925 58.0945 21.0496C58.1866 21.5314 58.0612 21.6416 57.6354 21.6008C57.5357 21.5918 57.4345 21.5993 57.3334 21.5993C38.5852 21.6008 19.837 21.6008 1.08881 21.6008C0.166124 21.6008 0.0166206 21.4664 0.0166206 20.5709C0.0136003 13.952 0.022661 7.33468 9.12283e-06 0.71581C-0.001501 0.132902 0.184245 -0.00149759 0.724869 1.25314e-05C11.3697 0.0166239 22.0146 0.0181314 32.6595 0.0256821C34.5743 0.0271922 36.4619 0.295998 38.342 0.619164C39.1454 1.09787 40.0787 1.18395 40.9395 1.48446Z" fill="black"/>
</svg>
